<svg width="48" height="48" viewBox="0 0 48 48" fill="none" xmlns="http://www.w3.org/2000/svg">
<circle cx="24" cy="24" r="24" fill="#1A1A1F"/>
<g transform="translate(7.35, 16.5) scale(0.15)">
<path d="M76.0685 79.4809C87.3247 91.7077 98.2063 98.6386 108.236 99.8306C109.207 99.9498 110.195 100.001 111.166 100.001C121.928 100.001 133.456 93.1212 145.496 79.515L145.751 79.2425C145.922 79.0551 146.092 78.8678 146.245 78.6805C147.744 76.9265 149.123 75.1214 150.468 73.3845C151.933 71.4772 153.312 69.6722 154.811 67.9863C157.961 64.4272 161.043 61.7707 164.228 59.8975C168.349 57.4624 172.896 55.9978 178.021 55.4018V89.6983H221.616V46.104H187.013V4.51909C187.013 2.06691 185.054 0.0744879 182.619 0.0234009C180.099 -0.0276862 177.579 0.0234133 175.109 0.142617C164.534 0.738632 154.317 3.10569 144.747 7.19266C137.186 10.4282 130.034 14.7195 123.495 19.9474C118.948 23.5916 114.827 27.5593 111.268 31.7485C111.114 31.9358 110.961 32.1232 110.808 32.3105C110.655 32.1232 110.501 31.9358 110.348 31.7485C106.789 27.5593 102.685 23.5916 98.1212 19.9474C91.5821 14.7024 84.4299 10.4111 76.8691 7.19266C67.2987 3.10569 57.0982 0.738632 46.5062 0.142617C44.037 0.00638431 41.5168 -0.0276862 38.9965 0.0234009C36.5614 0.0744879 34.6029 2.06691 34.6029 4.51909V46.104H0V89.6983H43.5943V55.4018C48.72 55.9808 53.2667 57.4624 57.3877 59.8975C60.5722 61.7707 63.6545 64.4272 66.8048 67.9863C68.3034 69.6722 69.6828 71.4772 71.1303 73.3845C72.4756 75.1385 73.8549 76.9435 75.3534 78.6805C75.5237 78.8848 75.6939 79.0722 75.8812 79.2766L76.1197 79.5319M34.6029 80.7069H8.97433V55.0783H34.6029V80.7069ZM143.333 67.9182C142.022 69.6382 140.779 71.2729 139.434 72.8225L138.77 73.5718C127.854 85.9008 117.67 91.9121 109.292 90.9074C101.578 89.9878 92.4165 83.9936 82.8122 73.5888H82.8292L82.1651 72.8225C80.8368 71.2729 79.5936 69.6382 78.2653 67.9182C76.7838 65.9769 75.2341 63.9504 73.5312 62.0261C69.7508 57.7519 65.9534 54.5164 61.9516 52.1493C56.5193 48.9479 50.3548 47.0065 43.5943 46.3594V9.01478C44.4117 9.03181 45.2121 9.06586 46.0125 9.11695C55.5487 9.64485 64.7443 11.7905 73.3439 15.4687C80.1555 18.3807 86.6095 22.2463 92.5016 26.9804C96.6056 30.267 100.318 33.8431 103.502 37.5895C104.439 38.6964 105.325 39.8203 106.261 41.0293L106.925 41.8808C107.896 43.6859 109.769 45.525 111.812 47.5003C122.285 57.7007 134.376 63.6609 146.058 64.4442C145.121 65.6192 144.219 66.7942 143.333 67.9352V67.9182ZM159.647 52.1493C158.251 52.9667 156.871 53.9032 155.526 54.942C154.504 55.0953 153.517 55.2145 152.546 55.3167C151.78 55.3848 150.996 55.4529 150.213 55.487C149.481 55.521 148.765 55.5381 148.033 55.521C138.088 55.3167 127.445 50.191 118.062 41.0464C117.79 40.7909 117.177 40.1609 116.547 39.4797C117.057 38.8326 117.568 38.2026 118.113 37.5725C121.298 33.8261 125.01 30.2499 129.114 26.9633C135.023 22.2293 141.46 18.3638 148.272 15.4518C156.871 11.7735 166.067 9.64483 175.603 9.0999C176.404 9.04881 177.204 9.01476 178.021 8.99773V46.3424C171.244 46.9895 165.079 48.9308 159.664 52.1323L159.647 52.1493ZM212.624 80.7069H187.013V55.0783H212.624V80.7069Z" fill="url(#paint0_linear_maya)"/>
</g>
<defs>
<linearGradient id="paint0_linear_maya" x1="64.0462" y1="122.207" x2="168.298" y2="-1.37295" gradientUnits="userSpaceOnUse">
<stop stop-color="#54EFF7"/>
<stop offset="1" stop-color="#72FFA1"/>
</linearGradient>
</defs>
</svg>
